Coordinates
version=1
nRows=24
nColumns=24
inDegrees=yes

Units are S.I. units (second, meters, Newtons, ...)
Angles are in degrees.

endheader
time	pelvis_tilt	pelvis_list	pelvis_rotation	pelvis_tx	pelvis_ty	pelvis_tz	hip_flexion_r	hip_adduction_r	hip_rotation_r	knee_angle_r	ankle_angle_r	subtalar_angle_r	mtp_angle_r	hip_flexion_l	hip_adduction_l	hip_rotation_l	knee_angle_l	ankle_angle_l	subtalar_angle_l	mtp_angle_l	lumbar_extension	lumbar_bending	lumbar_rotation
      0.82916667	      4.88514481	     -5.44865057	      9.26339906	     -0.53772484	      1.03582866	      0.32340435	      3.74588626	     11.67062134	     -3.28108137	    -10.57862485	      2.17661065	    -13.31732038	      6.54562643	     10.36440397	     -9.10938971	      0.57577610	    -67.64903770	     -7.43007694	     -3.24739219	      3.93600001	     -4.64237640	      3.16897691	     -2.84925151
      0.83333333	      4.86770728	     -5.32695212	      9.25329151	     -0.53296626	      1.03641437	      0.32362395	      3.31631672	     11.60052413	     -3.23959269	    -10.31858756	      2.31808317	    -13.19520677	      6.54306201	     10.95814193	     -8.93006599	      0.60846379	    -67.59258922	     -6.41947113	     -3.43301509	      3.83543832	     -4.69686614	      3.01407325	     -2.72473446
      0.83750000	      4.82540758	     -5.19389522	      9.22719393	     -0.52821430	      1.03697746	      0.32385030	      2.92073653	     11.51282541	     -3.19369120	    -10.07941421	      2.43697426	    -13.10191335	      6.53972865	     11.55688088	     -8.73006841	      0.61752254	    -67.46498878	     -5.48934299	     -3.69602722	      3.75603927	     -4.76048525	      2.84808003	     -2.62303690
      0.84166667	      4.80283649	     -5.05989418	      9.18875504	     -0.52346783	      1.03755346	      0.32409087	      2.49811991	     11.42814924	     -3.13072879	     -9.82978895	      2.56335197	    -12.99168304	      6.53493339	     12.11551677	     -8.53050766	      0.61585689	    -67.27556310	     -4.58988998	     -3.92080621	      3.66197233	     -4.83726363	      2.67721182	     -2.49269594
      0.84583333	      4.77617260	     -4.92191640	      9.14568327	     -0.51868229	      1.03812494	      0.32431557	      2.06421388	     11.33778747	     -3.06490871	     -9.55122335	      2.67025130	    -12.89817034	      6.53255197	     12.65695596	     -8.32249095	      0.60405497	    -67.01775378	     -3.79108748	     -4.21197321	      3.61424590	     -4.86380951	      2.51260027	     -2.40660990
      0.85000000	      4.75794877	     -4.75921372	      9.06571032	     -0.51395070	      1.03870406	      0.32458418	      1.64021271	     11.21811520	     -2.98602170	     -9.33029330	      2.87513330	    -12.70725347	      6.40538672	     13.16081205	     -8.08491879	      0.56643520	    -66.69597935	     -3.00800674	     -4.43980925	      2.22441545	     -4.94522599	      2.29204519	     -1.92299300
      0.85416667	      4.75452258	     -4.62268616	      8.98584033	     -0.50921717	      1.03926933	      0.32485939	      1.18793385	     11.13310969	     -2.87237920	     -9.06276702	      2.94313484	    -12.62541119	      6.39890757	     13.64209238	     -7.88732802	      0.51833022	    -66.32858843	     -2.22533876	     -4.62160922	      2.16481893	     -5.06820698	      2.14134202	     -1.95227964
      0.85833333	      4.74144998	     -4.48132426	      8.89570364	     -0.50447497	      1.03980142	      0.32513350	      0.74300141	     11.03921141	     -2.74815169	     -8.79556221	      3.03946406	    -12.54146395	      6.39081625	     14.11298543	     -7.67690017	      0.46674827	    -65.89836501	     -1.53945730	     -4.85316348	      2.09478254	     -5.15870352	      1.97266855	     -1.83154937
      0.86250000	      4.75838705	     -4.33677458	      8.79031140	     -0.49970699	      1.04036934	      0.32543045	      0.25278690	     10.94667571	     -2.61002073	     -8.50610718	      3.14143487	    -12.43948131	      6.36967451	     14.52418356	     -7.47275611	      0.39586813	    -65.39951459	     -0.90975611	     -5.07018309	      1.94683449	     -5.25724652	      1.79498946	     -1.57637967
      0.86666667	      4.71559916	     -4.20010778	      8.67293190	     -0.49497887	      1.04082218	      0.32571361	     -0.15053350	     10.84639827	     -2.49237250	     -8.25467168	      3.22388167	    -12.35673110	      6.36393581	     14.99283710	     -7.26003126	      0.32414942	    -64.85804498	     -0.31643112	     -5.33827178	      1.90906570	     -5.29775927	      1.62325721	     -1.49576901
      0.87083333	      4.75210721	     -4.03146940	      8.52762092	     -0.49025718	      1.04139160	      0.32604200	     -0.65936644	     10.72486621	     -2.30682910	     -7.97967471	      3.33539437	    -12.25251553	      6.34051396	     15.33316462	     -7.03080948	      0.22459225	    -64.23175138	      0.21620015	     -5.54671398	      1.77617553	     -5.45959304	      1.42979519	     -1.18265077
      0.87500000	      4.77025075	     -3.88859033	      8.37997151	     -0.48553306	      1.04188441	      0.32636595	     -1.13967162	     10.62436301	     -2.13864645	     -7.71099474	      3.42564451	    -12.16378687	      6.31357465	     15.68730405	     -6.82699663	      0.12704717	    -63.56719279	      0.73074181	     -5.76551393	      1.64585414	     -5.58017934	      1.25887388	     -0.95417918
      0.87916667	      4.78776003	     -3.74269311	      8.22009551	     -0.48082315	      1.04236079	      0.32670416	     -1.61619596	     10.51733504	     -1.96249490	     -7.44834395	      3.51596472	    -12.07244720	      6.28681551	     16.02186464	     -6.62038637	      0.02188706	    -62.84403202	      1.20910523	     -5.98065171	      1.53096362	     -5.70162270	      1.08929232	     -0.73718460
      0.88333333	      4.77268683	     -3.58957981	      8.03584214	     -0.47612023	      1.04277500	      0.32705494	     -2.04253185	     10.39150789	     -1.78404939	     -7.22080172	      3.60490702	    -11.98397208	      6.26823260	     16.36642046	     -6.39994680	     -0.09872830	    -62.06171988	      1.66751327	     -6.19094541	      1.45859132	     -5.79771944	      0.90999567	     -0.56156454
      0.88750000	      4.83457551	     -3.44699697	      7.86029312	     -0.47140117	      1.04327454	      0.32739948	     -2.58004865	     10.28755396	     -1.58809539	     -6.92782332	      3.69191214	    -11.87643745	      6.23680700	     16.60888507	     -6.20744328	     -0.21732921	    -61.22000503	      2.06770087	     -6.38974165	      1.34987414	     -5.95479338	      0.74650499	     -0.26588497
      0.89166667	      4.85725358	     -3.30573393	      7.66646991	     -0.46669807	      1.04367914	      0.32775985	     -3.05633807	     10.17419753	     -1.38527571	     -6.67490895	      3.78020534	    -11.78252738	      6.20298173	     16.87537552	     -6.00898481	     -0.34065427	    -60.32881256	      2.45832275	     -6.57418439	      1.24533613	     -6.07725808	      0.58064174	     -0.01416713
      0.89583333	      4.84064429	     -3.17697164	      7.45691711	     -0.46201728	      1.04398503	      0.32813679	     -3.46895884	     10.06303353	     -1.18849712	     -6.45912152	      3.86852845	    -11.68909501	      6.18150106	     17.17152991	     -5.82107696	     -0.47076398	    -59.39495277	      2.84617767	     -6.74486357	      1.18451103	     -6.17059763	      0.42368568	      0.16163701
      0.90000000	      4.89034103	     -3.05450170	      7.25903785	     -0.45730352	      1.04436552	      0.32848624	     -3.98168605	      9.96580454	     -0.98176689	     -6.18162300	      3.95864013	    -11.58012349	      6.14322701	     17.37258907	     -5.64795918	     -0.59052739	    -58.39695337	      3.16489878	     -6.91379283	      1.08638992	     -6.30138961	      0.28525948	      0.47564684
      0.90416667	      4.90944219	     -2.92542208	      7.04372408	     -0.45260869	      1.04467334	      0.32885350	     -4.44434978	      9.85158108	     -0.77015068	     -5.94029514	      4.05004908	    -11.47714060	      6.10185715	     17.58362708	     -5.46309766	     -0.71736756	    -57.34348468	      3.47113324	     -7.08223859	      0.98852675	     -6.41379919	      0.13502113	      0.73969518
      0.90833333	      4.91368669	     -2.81244531	      6.82655960	     -0.44790769	      1.04491840	      0.32921338	     -4.88612205	      9.74843143	     -0.56309013	     -5.70342765	      4.14444069	    -11.37062478	      6.06005224	     17.79634112	     -5.29518969	     -0.84123968	    -56.24466602	      3.75428010	     -7.23495497	      0.89680389	     -6.50543625	      0.00022976	      0.98704860
      0.91250000	      4.90529510	     -2.69418058	      6.59557127	     -0.44321995	      1.04512348	      0.32958303	     -5.30064659	      9.63242332	     -0.35076256	     -5.49541941	      4.23969766	    -11.26242082	      6.03082727	     17.99776846	     -5.11895243	     -0.96850210	    -55.08696625	      4.02041878	     -7.38169345	      0.83358569	     -6.60188331	     -0.14956086	      1.18035507
      0.91666667	      4.93642365	     -2.58427694	      6.37025134	     -0.43851581	      1.04535522	      0.32993012	     -5.76775842	      9.52625732	     -0.14319081	     -5.26216359	      4.33616181	    -11.14241314	      5.99755501	     18.13384237	     -4.95481184	     -1.08581751	    -53.87113970	      4.23450827	     -7.54247711	      0.76375152	     -6.72061784	     -0.27660781	      1.43124794
      0.92083333	      4.94994893	     -2.48336313	      6.14638356	     -0.43380443	      1.04550939	      0.33026738	     -6.21311799	      9.42440013	      0.06580950	     -5.03051336	      4.43531370	    -11.03020012	      5.96304425	     18.27320503	     -4.79870509	     -1.19986825	    -52.61067663	      4.41745462	     -7.70020489	      0.69213683	     -6.81710418	     -0.39769149	      1.67772502
      0.92500000	      4.94254023	     -2.38925709	      5.92105306	     -0.42907638	      1.04561513	      0.33058942	     -6.63135451	      9.32309614	      0.27258731	     -4.80637636	      4.53318406	    -10.91893438	      5.92745540	     18.41221717	     -4.64416359	     -1.30485327	    -51.29305634	      4.55769896	     -7.86743735	      0.61810062	     -6.88182993	     -0.51504819	      1.91884538
